<svg xmlns="http://www.w3.org/2000/svg" viewBox="0 0 158.2 150.85"><defs><style>.cls-1{fill:#fff;}.cls-2{fill:#bcce16;}.cls-3{fill:#52b474;}.cls-4{fill:#29b3a5;}</style></defs><g id="Capa_2" data-name="Capa 2"><g id="Capa_1-2" data-name="Capa 1"><path class="cls-1" d="M13.44,27.37l1.49-2.31-.77-1.19.41-.64L17.64,28l-.4.62-5.62-.85.42-.65Zm.63.1,2.74.45L15.29,25.6Z"/><path class="cls-1" d="M11.68,28.88l.37.52a2.67,2.67,0,0,0-1.36,1.2c-.43.78-.32,1.29.08,1.51,1.1.61,1.93-2.52,3.61-1.58.7.39,1,1.26.33,2.45a3,3,0,0,1-1.21,1.23l-.4-.5a2.53,2.53,0,0,0,1.06-1c.43-.76.29-1.28-.1-1.5-1.11-.61-1.94,2.52-3.61,1.59-.69-.38-1-1.27-.31-2.47A3.07,3.07,0,0,1,11.68,28.88Z"/><path class="cls-1" d="M11,34.28a2.75,2.75,0,0,1-2.3,5,2.62,2.62,0,0,1-1.26-3.6A2.63,2.63,0,0,1,11,34.28ZM9,38.61A2,2,0,1,0,8,36,1.95,1.95,0,0,0,9,38.61Z"/><path class="cls-1" d="M8.25,40.33a2.63,2.63,0,0,1,1.53,3.5,2.54,2.54,0,0,1-1.44,1.56l-.27-.61a1.89,1.89,0,0,0,1.08-1.15A2,2,0,0,0,8,41a2,2,0,0,0-2.57,1.22,1.9,1.9,0,0,0,.08,1.58l-.61.29A2.6,2.6,0,0,1,4.81,42,2.63,2.63,0,0,1,8.25,40.33Z"/><path class="cls-1" d="M8.66,46.94l-.21.71L3.5,46.12l.22-.7Z"/><path class="cls-1" d="M3.35,51.67,4,49,2.9,48.13l.18-.74,4.47,3.53-.18.71-5.6,1L2,51.91ZM4,51.56l2.74-.47-2.2-1.7Z"/><path class="cls-1" d="M4.15,54A2.62,2.62,0,0,1,6.3,57.14a2.58,2.58,0,0,1-1.13,1.8l-.38-.55a1.91,1.91,0,0,0,.85-1.34A2,2,0,0,0,4,54.71a2,2,0,0,0-2.31,1.67,1.9,1.9,0,0,0,.37,1.54l-.54.4a2.55,2.55,0,0,1-.47-2.09A2.61,2.61,0,0,1,4.15,54Z"/><path class="cls-1" d="M5.77,60.39l-.08.73L.54,60.53l.08-.74Z"/><path class="cls-1" d="M2.91,62.37a2.76,2.76,0,0,1-.32,5.5,2.76,2.76,0,0,1,.32-5.5Zm-.28,4.76a2,2,0,0,0,.23-4,2,2,0,0,0-.23,4Zm4.06-1.32-.06.9-.88-1.3,0-.66Z"/><path class="cls-1" d="M5.29,73.81l-5.18.13,0-.61,3.79-3.2L0,70.22l0-.74,5.18-.13,0,.61-3.79,3.2,3.86-.09Z"/><path class="cls-1" d="M6.22,82.3,1.09,83,1,82.41l3.4-3.61-3.83.53-.1-.73,5.13-.71.08.6-3.4,3.6,3.83-.52Z"/><path class="cls-1" d="M3.45,88.11l-.59-2.69-1.38-.28-.17-.74,5.57,1.19L7,86.3,2.47,89.7l-.17-.76ZM4,87.73,6.21,86.1,3.5,85.55Z"/><path class="cls-1" d="M5.19,89.83a2.61,2.61,0,0,1,3.32,1.88,2.55,2.55,0,0,1-.21,2.12l-.58-.33a2,2,0,0,0-2.32-3,2,2,0,0,0-1.33,2.52,2,2,0,0,0,1,1.22l-.31.59a2.58,2.58,0,0,1-1.34-1.66A2.63,2.63,0,0,1,5.19,89.83Z"/><path class="cls-1" d="M9.49,94.87l.25.7L4.85,97.31l-.24-.7Z"/><path class="cls-1" d="M7.79,97.91a2.64,2.64,0,0,1,3.52,1.5,2.65,2.65,0,1,1-4.87,2.08A2.63,2.63,0,0,1,7.79,97.91Zm1.87,4.38a2,2,0,0,0-1.58-3.7,2,2,0,0,0,1.58,3.7Z"/><path class="cls-1" d="M15,107.12l-4.58,2.42-.29-.54,2-4.55-3.41,1.8-.35-.65,4.58-2.43.29.54-2,4.56,3.42-1.81Z"/><path class="cls-1" d="M14.41,113.51l-1.47-2.32-1.4.21-.41-.65,5.63-.79.4.62L14,115.35l-.42-.66Zm.36-.53,1.55-2.31-2.74.42Z"/><path class="cls-1" d="M19,113.4l.44.6-3.66,2.68,1.66,2.26-.52.38-2.09-2.86Z"/><path class="cls-1" d="M23.26,118.89l1.46,1.62A2.6,2.6,0,1,1,20.88,124l-1.46-1.62Zm-1.93,4.63a2,2,0,1,0,2.89-2.61l-.94-1-2.89,2.61Z"/><path class="cls-1" d="M27.18,129.42l-.44.47L24,127.3l3.57-3.75,2.64,2.52-.44.46-2.11-2-1.1,1.15,1.88,1.79-.43.45-1.88-1.79L25,127.34Z"/><path class="cls-1" d="M35.29,132.52a1.82,1.82,0,0,1-2.83.24l-.74-.56-.88,1.13-1.07-.83L33,128.4l1.8,1.4C35.81,130.62,36,131.61,35.29,132.52Zm-1-.75a.76.76,0,0,0-.21-1.16l-.67-.52-1,1.25.68.53A.76.76,0,0,0,34.25,131.77Z"/><path class="cls-1" d="M37.3,136.86l-1.86-1.25-.81.56-1.15-.78,4.74-3,1.15.77-1.09,5.52-1.2-.81Zm.25-1.08.44-1.93L36.36,135Z"/><path class="cls-1" d="M41.94,140.73l.06-1.62,0,0-.85-.48-.71,1.25-1.18-.67,2.57-4.52,2,1.16c1.2.68,1.55,1.64,1,2.65a1.78,1.78,0,0,1-1.63,1l.1,2Zm-.28-3.06.85.48a.8.8,0,1,0,.79-1.38l-.86-.49Z"/><path class="cls-1" d="M49.19,145.05a2.41,2.41,0,0,1-1.61-.12,1.85,1.85,0,0,1-1-1.78A2.65,2.65,0,1,1,50.34,142a2.57,2.57,0,0,1-2.59,1.5.8.8,0,0,0,.4.57,1.7,1.7,0,0,0,1,0Zm-2-2.89a1.49,1.49,0,1,0-.66-2A1.46,1.46,0,0,0,47.18,142.16Z"/><path class="cls-1" d="M53,144.64a1,1,0,0,0,1.33-.65l1.06-2.82,1.27.47-1.07,2.82a2.39,2.39,0,0,1-4.47-1.68L52.22,140l1.27.48-1.06,2.81A1,1,0,0,0,53,144.64Z"/><path class="cls-1" d="M61.74,143.16l-.31,1-2.62-.77-.27.93,2.37.7-.31,1-2.37-.69-.28.93,2.7.8-.3,1-4-1.17,1.47-5Z"/><path class="cls-1" d="M64.46,144.85c-.32-.07-.55,0-.6.23-.19.84,2.59.95,2.18,2.78-.23,1-1.25,1.36-2.38,1.11a4,4,0,0,1-2.16-1.33l.74-.92a3.28,3.28,0,0,0,1.67,1.17c.39.09.67,0,.73-.27.19-.86-2.6-.93-2.2-2.72.21-1,1.15-1.37,2.37-1.1a3.93,3.93,0,0,1,1.9,1l-.73.93A4,4,0,0,0,64.46,144.85Z"/><path class="cls-1" d="M72.58,148.7l-.2,1.65L71,150.19l.18-1.61-1.48-3.76,1.34.15,1,2.36,1.45-2.08,1.34.16Z"/><path class="cls-1" d="M81.12,150.82l-.73-1.44h0l-1,0,0,1.43-1.35,0,.08-5.18,2.33,0c1.38,0,2.16.71,2.14,1.86a1.77,1.77,0,0,1-1,1.66l1.06,1.71Zm-1.72-2.54h1a.75.75,0,0,0,.88-.79c0-.51-.31-.79-.86-.8h-1Z"/><path class="cls-1" d="M87.76,145.38l.06,1.08-2.73.15,0,1,2.47-.14.06,1.07-2.46.15.05,1,2.81-.16.06,1.08-4.16.24-.3-5.18Z"/><path class="cls-1" d="M91.5,146.05a1.47,1.47,0,0,0,.37,2.91,2,2,0,0,0,1.2-.77l.9.74a3,3,0,0,1-2,1.23,2.64,2.64,0,1,1-.62-5.24,3,3,0,0,1,2.19.61l-.66,1A1.74,1.74,0,0,0,91.5,146.05Z"/><path class="cls-1" d="M98.3,149l-1-1.26h0l-1,.19.29,1.41-1.33.27-1-5.09,2.28-.46c1.35-.27,2.25.23,2.48,1.36a1.75,1.75,0,0,1-.58,1.82l1.39,1.45Zm-2.22-2.12,1-.19a.75.75,0,0,0,.69-1,.74.74,0,0,0-1-.6l-1,.19Z"/><path class="cls-1" d="M103.64,142.28l.29,1-2.64.74.26.93,2.38-.66.29,1-2.38.67.26.94,2.71-.75.29,1-4,1.12-1.39-5Z"/><path class="cls-1" d="M109.42,144.78l-2.11.76,0,1L106,147l.33-5.63,1.3-.47,3.81,4.13-1.35.49Zm-.73-.84-1.29-1.49-.06,2Z"/><path class="cls-1" d="M112.88,139.92a1.47,1.47,0,0,0,1.2,2.68,1.9,1.9,0,0,0,.93-1.08l1.07.46a3.07,3.07,0,0,1-1.58,1.75,2.64,2.64,0,1,1-2.1-4.84,2.93,2.93,0,0,1,2.27,0l-.33,1.18A1.8,1.8,0,0,0,112.88,139.92Z"/><path class="cls-1" d="M116.29,137l2.36,4.62-1.2.61-2.37-4.62Z"/><path class="cls-1" d="M123.29,136a2.81,2.81,0,1,1-3.75-.84A2.66,2.66,0,0,1,123.29,136Zm-3.3-2.55-.41,1.23-.86.5,0-1.49Zm-.33,4.69a1.46,1.46,0,0,0,2,.57,1.45,1.45,0,0,0,.45-2,1.43,1.43,0,0,0-2-.57A1.45,1.45,0,0,0,119.66,138.17Z"/><path class="cls-1" d="M123.7,132.62l3.72,1.21-1.79-2.55,1-.73,3,4.25-1,.68-3.7-1.2,1.78,2.55-1,.72-3-4.24Z"/><path class="cls-1" d="M129.66,128.18l1.64-1.44a2.6,2.6,0,1,1,3.43,3.88l-1.64,1.45Zm4.61,2a2,2,0,1,0-2.58-2.92l-1.05.92,2.58,2.93Z"/><path class="cls-1" d="M140.25,124.39l.46.45-2.63,2.69-3.7-3.62,2.55-2.62.46.45-2,2.09,1.14,1.11,1.82-1.86.45.44-1.82,1.86,1.2,1.17Z"/><path class="cls-1" d="M146.52,117.82l-3-2.31,1.33,3.41-.2.27-3.62-.44,3,2.3-.43.56-4.1-3.18.38-.48,4.2.53-1.57-3.92.38-.48,4.09,3.18Z"/><path class="cls-1" d="M149.71,112l.54.35-2.06,3.14-4.33-2.83,2-3.06.54.36-1.59,2.44,1.33.87,1.42-2.18.53.34-1.42,2.18,1.4.91Zm-5.14-1.2-.37.56-.25-1.37.49-.75Z"/><path class="cls-1" d="M152.73,108l-2.63.31,1.12,2.38-.42.75-1.36-3-3.1.36.42-.73,2.44-.3-1-2.22.39-.7,1.29,2.81,3.29-.4Z"/><path class="cls-1" d="M149.05,103.79l.33-.66,4.64,2.3-.33.67Z"/><path class="cls-1" d="M152.4,102.9a2.62,2.62,0,0,1-1.34-3.57,2.52,2.52,0,0,1,1.52-1.48l.23.62a1.93,1.93,0,0,0-1.14,1.1,2,2,0,1,0,3.66,0l.62-.26a2.58,2.58,0,0,1,0,2.14A2.62,2.62,0,0,1,152.4,102.9Z"/><path class="cls-1" d="M154.63,97.68a2.76,2.76,0,1,1,3.4-1.76A2.64,2.64,0,0,1,154.63,97.68Zm1.54-4.51a1.93,1.93,0,0,0-2.53,1.25,2,2,0,1,0,2.53-1.25Z"/><path class="cls-1" d="M50.19,90.86H40.78L39,95.18H32.61l9.83-22.26h6.2l9.85,22.26H51.94Zm-1.84-4.64-2.86-7.13-2.86,7.13Z"/><path class="cls-1" d="M81.46,72.92V95.18H76.27L66.45,83.32V95.18H60.28V72.92h5.18l9.83,11.86V72.92Z"/><path class="cls-1" d="M106,81.16c0,5.06-3.82,8.2-9.89,8.2H92.21v5.82h-6.3V72.92H96.09C102.16,72.92,106,76.07,106,81.16Zm-6.36,0c0-2.07-1.31-3.28-3.91-3.28h-3.5V84.4h3.5C98.31,84.4,99.62,83.19,99.62,81.16Z"/><path class="cls-1" d="M118.76,89.27h-3.43v5.91H109V72.92h10.18c6.07,0,9.89,3.15,9.89,8.24a7.4,7.4,0,0,1-4.36,7l4.8,7H122.8Zm.07-11.39h-3.5V84.4h3.5c2.6,0,3.91-1.21,3.91-3.24S121.43,77.88,118.83,77.88Z"/><path class="cls-1" d="M62.55,111.7v-5.36l-2.63,4.42H59l-2.62-4.3v5.24H54.43v-8.93h1.71l3.34,5.55,3.29-5.55h1.69l0,8.93Z"/><path class="cls-1" d="M73.77,110v1.66H66.86v-8.93h6.75v1.66h-4.7v1.94h4.15V108H68.91V110Zm-3.13-8H69.08l1.72-1.84H73Z"/><path class="cls-1" d="M81.21,111.7l-2.16-3.1-2.11,3.1H74.56l3.31-4.54-3.14-4.39h2.35l2,2.9,2-2.9h2.23l-3.11,4.31,3.33,4.62Z"/><path class="cls-1" d="M84.67,102.77h2.06v8.93H84.67Z"/><path class="cls-1" d="M88.54,107.24a4.92,4.92,0,0,1,8.52-3l-1.32,1.23a2.89,2.89,0,0,0-2.25-1.05,2.86,2.86,0,0,0,0,5.71,2.86,2.86,0,0,0,2.25-1l1.32,1.22a4.91,4.91,0,0,1-8.52-3Z"/><path class="cls-1" d="M98,107.24a4.89,4.89,0,1,1,4.88,4.61A4.61,4.61,0,0,1,98,107.24Zm7.67,0a2.79,2.79,0,1,0-2.79,2.85A2.72,2.72,0,0,0,105.63,107.24Z"/><path class="cls-2" d="M29.57,7.89c-2,18.42-.68,26,11,30.39C35.31,32.38,34.43,23.64,35,22c1.68,4.78,6.38,19.8,19.28,24.33-9.58-7-5.25-12.09-9.36-22.43A30.14,30.14,0,0,0,32.81,9.18h0c-.4-.26-.78-.47-1.12-.65l-1.84-.89-.2-.08C29.6,7.66,29.58,7.77,29.57,7.89Z"/><path class="cls-2" d="M51.55,24.27c7.17,16,10.1,38.66,35.36,38.66a49,49,0,0,0,5.63-.34c-10.67-7.76-10.78-26.7-23.23-37.18C86,36.31,84.68,49.33,94.75,59.27c3.9,3.86,7.75,5.57,14,5.69C93,55.15,107.11,45.82,87.47,23.81c-10.29-11.54-36.28-19-51.06-19a28.12,28.12,0,0,0-5.52.46,21.38,21.38,0,0,1,2,.94C45.37,12.41,48.12,16.65,51.55,24.27Z"/><path class="cls-2" d="M116.81,63.21a15.47,15.47,0,0,0,6.55-1.49c5.92-2.78,8.29-9.44,9.81-16.42-1.16-.11-2.27-.16-3.34-.16-11.16,0-17.66,5.24-17.38,11.29a5.64,5.64,0,0,0,2.16.4c4.13,0,9-3.71,11.43-5.25-1.06,2.92-6.58,7.81-13.58,7.81a15.43,15.43,0,0,1-6.16-1.31C107.7,60.62,111.79,63.21,116.81,63.21Z"/><path class="cls-3" d="M148.14,85.3c-5.37,28.08-29.8,50.85-58.55,54C42.49,145.54,3.26,102.23,13.23,56A67.08,67.08,0,0,1,26.11,28.46a.3.3,0,0,1,.47.36A69.94,69.94,0,0,0,15,56.35c-10,56,48.66,98.08,98.69,71.56,2.09-1.23,4.33-2.46,6.3-3.89l3-2.14,2.86-2.38,1.43-1.19,1.33-1.3,2.66-2.62,2.43-2.82a71.3,71.3,0,0,0,13.92-26.39A.25.25,0,0,1,148,85a.26.26,0,0,1,.17.29Z"/><path class="cls-4" d="M58.21,4.7c41.23-16.42,88.37,12.05,91.89,56.61a61.24,61.24,0,0,1-.78,17.63.27.27,0,0,1-.53-.07A71,71,0,0,0,143.62,45c-11-26.64-39.2-44.92-68.13-42.75a74.83,74.83,0,0,0-17,3.11A.34.34,0,0,1,58,5.12a.34.34,0,0,1,.2-.42Z"/></g></g></svg>